<svg viewBox="0 0 346 75" width="242" height="51" xmlns="http://www.w3.org/2000/svg" xmlns:xlink="http://www.w3.org/1999/xlink" aria-labelledby="RLSA-logo-title"><defs><path id="a" d="M.296.453h42.492v22.7H.296z"/><path id="c" d="M.06.704h57.443V75H.06z"/></defs><g fill="none" fill-rule="evenodd"><path d="M80.404 39.538h3.177c1.696 0 2.868-1.017 2.868-2.745 0-1.757-1.172-2.714-2.868-2.714h-3.177v5.459zm-4.626-7.309c0-1.481.832-2.405 2.374-2.405h5.429c4.75 0 7.679 2.128 7.679 6.969 0 3.393-2.559 5.336-5.705 5.83l5.243 5.613c.431.462.617.925.617 1.357 0 1.203-.957 2.375-2.313 2.375-.556 0-1.296-.216-1.79-.802l-6.846-8.297h-.062v6.693c0 1.542-.987 2.406-2.313 2.406s-2.313-.864-2.313-2.406V32.229zm34.97 8.574c0-3.732-1.943-7.094-5.799-7.094-3.855 0-5.798 3.362-5.798 7.094 0 3.762 1.882 7.093 5.798 7.093 3.917 0 5.799-3.331 5.799-7.093zm-16.408 0c0-6.415 4.318-11.35 10.609-11.35 6.199 0 10.61 5.089 10.61 11.35 0 6.384-4.288 11.35-10.61 11.35-6.261 0-10.609-4.966-10.609-11.35zm28.618.678-5.829-8.204a2.458 2.458 0 0 1-.432-1.387c0-1.234.925-2.252 2.221-2.252.802 0 1.511.34 1.912.925l4.441 6.446 4.441-6.446c.401-.585 1.111-.925 1.913-.925 1.295 0 2.22 1.018 2.22 2.252 0 .493-.154.986-.432 1.387l-5.829 8.204v8.236c0 1.14-.678 2.251-2.313 2.251-1.634 0-2.313-1.111-2.313-2.251v-8.236m15.502 1.728h5.859l-2.867-8.945h-.062l-2.93 8.945zm-.339-11.196c.524-1.418 1.727-2.56 3.3-2.56 1.634 0 2.775 1.08 3.299 2.56l6.046 16.778c.185.493.246.926.246 1.142 0 1.202-.987 2.035-2.128 2.035-1.295 0-1.943-.679-2.251-1.604l-.925-2.899h-8.574l-.926 2.868c-.308.956-.956 1.635-2.22 1.635-1.234 0-2.283-.926-2.283-2.159 0-.494.154-.864.216-1.018l6.2-16.778zm15.881.031c0-1.542.987-2.406 2.313-2.406s2.313.864 2.313 2.406v15.482h5.49c1.573 0 2.252 1.172 2.221 2.221-.062 1.018-.864 2.035-2.221 2.035h-7.711c-1.511 0-2.405-.986-2.405-2.528v-17.21m23.334 0c0-1.542.988-2.406 2.314-2.406 1.325 0 2.312.864 2.312 2.406v15.482h5.491c1.573 0 2.252 1.172 2.22 2.221-.061 1.018-.864 2.035-2.22 2.035h-7.711c-1.511 0-2.406-.986-2.406-2.528v-17.21m15.383 0c0-1.542.987-2.406 2.314-2.406 1.326 0 2.312.864 2.312 2.406v17.518c0 1.542-.986 2.406-2.312 2.406-1.327 0-2.314-.864-2.314-2.406V32.044m7.657.185c0-1.264.863-2.405 2.405-2.405h7.772c1.358 0 2.067 1.048 2.067 2.128 0 1.048-.679 2.127-2.067 2.127h-5.551v4.503h5.398c1.479 0 2.22 1.049 2.22 2.098 0 1.079-.741 2.159-2.22 2.159h-5.398v6.723c0 1.542-.988 2.406-2.313 2.406-1.326 0-2.313-.864-2.313-2.406V32.229m15.289.277c0-1.541.769-2.682 2.405-2.682h7.648c1.481 0 2.19 1.048 2.19 2.128 0 1.048-.741 2.127-2.19 2.127h-5.428v4.503h5.367c1.511 0 2.252 1.049 2.252 2.129 0 1.048-.772 2.128-2.252 2.128h-5.367v4.687h5.429c1.481 0 2.19 1.049 2.19 2.128 0 1.049-.74 2.128-2.19 2.128h-7.68c-1.357 0-2.374-.925-2.374-2.312V32.506m36.936.031c0 1.204-.802 2.283-2.066 2.283-1.264 0-2.251-.926-4.101-.926-1.327 0-2.53.71-2.53 2.005 0 3.177 10.301 1.141 10.301 9.099 0 4.41-3.639 7.155-7.896 7.155-2.374 0-7.493-.555-7.493-3.455 0-1.203.802-2.189 2.065-2.189 1.451 0 3.177 1.202 5.183 1.202 2.035 0 3.145-1.141 3.145-2.651 0-3.64-10.302-1.451-10.302-8.606 0-4.318 3.548-7.001 7.65-7.001 1.727 0 6.044.648 6.044 3.084m10.387 10.672h5.858l-2.867-8.945h-.062l-2.929 8.945zm-.34-11.196c.524-1.418 1.727-2.56 3.3-2.56 1.635 0 2.775 1.08 3.3 2.56l6.044 16.778c.186.493.248.926.248 1.142 0 1.202-.988 2.035-2.128 2.035-1.295 0-1.943-.679-2.251-1.604l-.927-2.899h-8.572l-.927 2.868c-.308.956-.956 1.635-2.22 1.635-1.233 0-2.282-.926-2.282-2.159 0-.494.154-.864.216-1.018l6.199-16.778zm20.091 13.433h.062l5.182-14.358c.308-.957.956-1.635 2.22-1.635 1.233 0 2.282.926 2.282 2.159 0 .493-.154.864-.216 1.018l-6.198 16.778c-.525 1.418-1.729 2.56-3.301 2.56-1.635 0-2.775-1.079-3.3-2.56l-6.045-16.778c-.185-.493-.247-.925-.247-1.141 0-1.203.988-2.036 2.128-2.036 1.295 0 1.943.678 2.251 1.604l5.182 14.389m12.798-13.402c0-1.542.987-2.406 2.313-2.406 1.325 0 2.313.864 2.313 2.406v17.518c0 1.542-.988 2.406-2.313 2.406-1.326 0-2.313-.864-2.313-2.406V32.044" fill="#ffffff"/><g transform="translate(303 29)"><mask id="b" fill="#fff"><use xlink:href="#a"/></mask><path d="M.296 3.044c0-1.542.987-2.406 2.313-2.406.586 0 1.543.463 1.944 1.018l9.777 13.046h.061V3.044c0-1.542.987-2.406 2.313-2.406s2.314.864 2.314 2.406v17.518c0 1.542-.988 2.406-2.314 2.406-.586 0-1.511-.463-1.943-1.018L4.985 9.058h-.062v11.504c0 1.542-.987 2.406-2.314 2.406-1.326 0-2.313-.864-2.313-2.406V3.044m39.778 6.724c1.942 0 2.715.986 2.715 2.96 0 5.953-3.887 10.425-10.056 10.425-6.261 0-10.608-4.966-10.608-11.35 0-6.415 4.318-11.35 10.608-11.35 4.658 0 8.481 2.19 8.481 4.349 0 1.326-.832 2.159-1.911 2.159-2.097 0-2.529-2.252-6.57-2.252-3.855 0-5.797 3.362-5.797 7.094 0 3.762 1.881 7.093 5.797 7.093 2.437 0 5.244-1.357 5.244-4.873h-3.145c-1.266 0-2.161-.894-2.161-2.158 0-1.296.988-2.097 2.161-2.097h5.242" fill="#ffffff" mask="url(#b)"/></g><path d="m17.204 40.666-1.357-1.356a.667.667 0 0 0-1.025.092 16.947 16.947 0 0 0-2.799 9.332c0 3.429 1.026 6.616 2.773 9.293.228.35.73.39 1.026.095l1.358-1.359a.656.656 0 0 0 .089-.812 13.776 13.776 0 0 1-2.034-7.217c0-2.659.754-5.143 2.056-7.256a.656.656 0 0 0-.087-.812M38.44 63.02a.667.667 0 0 0 .093-1.025l-1.356-1.355a.656.656 0 0 0-.813-.088 13.784 13.784 0 0 1-7.256 2.056 13.78 13.78 0 0 1-7.286-2.073.656.656 0 0 0-.814.087l-1.354 1.354A.667.667 0 0 0 19.747 63a16.943 16.943 0 0 0 18.693.02m2.579-6.226 1.356 1.356c.295.295.797.255 1.025-.093a16.948 16.948 0 0 0-.026-18.684c-.229-.348-.73-.386-1.024-.092l-1.354 1.354a.653.653 0 0 0-.087.814 13.783 13.783 0 0 1 2.073 7.285c0 2.655-.752 5.136-2.051 7.246a.656.656 0 0 0 .088.814M19.786 34.442a.668.668 0 0 0-.094 1.026l1.357 1.356a.657.657 0 0 0 .813.088 13.78 13.78 0 0 1 7.246-2.051c2.643 0 5.113.746 7.217 2.034a.654.654 0 0 0 .811-.088l1.359-1.359c.295-.295.255-.798-.095-1.026a16.946 16.946 0 0 0-18.614.02m23.802 32.609a.654.654 0 0 0-.859-.057c-3.805 2.848-8.514 4.548-13.621 4.548-5.119 0-9.838-1.708-13.648-4.567a.655.655 0 0 0-.86.055l-1.352 1.352a.671.671 0 0 0 .058 1.002 25.875 25.875 0 0 0 15.802 5.371 25.873 25.873 0 0 0 15.773-5.35.67.67 0 0 0 .059-1.003l-1.352-1.351M14.637 30.412a.656.656 0 0 0 .86.056c3.802-2.843 8.508-4.542 13.611-4.542 3.875 0 7.521.982 10.72 2.695a.654.654 0 0 0 .774-.11l1.377-1.377a.67.67 0 0 0-.135-1.051 25.788 25.788 0 0 0-12.736-3.369 25.864 25.864 0 0 0-15.763 5.344.67.67 0 0 0-.06 1.002l1.352 1.352m-3.845 3.842L9.44 32.902a.671.671 0 0 0-1.002.059 25.875 25.875 0 0 0-5.35 15.773 25.869 25.869 0 0 0 5.323 15.735.67.67 0 0 0 1.003.06l1.351-1.351a.655.655 0 0 0 .058-.859C7.991 58.52 6.3 53.825 6.3 48.734c0-5.106 1.701-9.816 4.549-13.62a.656.656 0 0 0-.057-.86" fill="#ffffff"/><mask id="d" fill="#fff"><use xlink:href="#c"/></mask><path d="m47.431 63.206 1.351 1.352a.672.672 0 0 0 1.003-.06 25.871 25.871 0 0 0 5.344-15.764 25.78 25.78 0 0 0-3.351-12.702.668.668 0 0 0-1.051-.135l-1.376 1.376a.654.654 0 0 0-.112.773 22.631 22.631 0 0 1 2.678 10.688c0 5.103-1.699 9.809-4.542 13.613a.653.653 0 0 0 .056.859M21.079 8.778c2.49 0 3.912 2.031 6.383 2.149.118 0 .217.097.217.216v.497a.216.216 0 0 1-.16.21 1.072 1.072 0 0 0-.905 1.056c0 .525.383.962.883 1.05a.218.218 0 0 1 .182.216v.582c0 .12-.1.219-.218.219h-2.37c-.122 0-.222-.099-.222-.307 0-.147.11-.272.253-.297.527-.112.925-.579.925-1.143 0-.51-.313-.942-.783-1.106a.297.297 0 0 1-.201-.243 1.175 1.175 0 0 0-1.159-1.001c-.59 0-1.072.437-1.16 1.001a.296.296 0 0 1-.2.243 1.16 1.16 0 0 0-.784 1.106c0 .564.396 1.031.924 1.143.143.025.254.15.254.386a.22.22 0 0 1-.221.218h-1.298a.23.23 0 0 1-.168-.082c-.4-.467-2.213-2.704-2.213-4.351 0-1.04.814-1.762 2.041-1.762zm9.448 5.394a.22.22 0 0 1 .185-.216 1.07 1.07 0 0 0 .883-1.05c0-.527-.387-.971-.905-1.056a.215.215 0 0 1-.163-.21v-.497a.22.22 0 0 1 .219-.216c2.473-.118 3.892-2.149 6.383-2.149 1.226 0 2.04.722 2.04 1.762 0 1.647-1.81 3.884-2.212 4.351a.23.23 0 0 1-.17.082h-1.3c-.115 0-.215-.099-.215-.307 0-.147.106-.272.251-.297.529-.112.926-.579.926-1.143 0-.51-.316-.942-.783-1.106a.297.297 0 0 1-.203-.243 1.175 1.175 0 0 0-1.156-1.001c-.592 0-1.078.437-1.161 1.001a.306.306 0 0 1-.2.243 1.154 1.154 0 0 0-.783 1.106c0 .564.396 1.031.926 1.143.14.025.248.15.248.386a.22.22 0 0 1-.22.218h-2.368a.223.223 0 0 1-.222-.219v-.582zm-10.391 3.147h17.926a.53.53 0 0 0 .409-.182c.718-.829 3.59-4.293 3.59-6.597 0-2.284-1.993-4.526-4.781-4.526-2.716 0-4.134 2.048-6.547 2.16-.109 0-.455-.093-.455-.204l-.224-1h1.33l-1.795-2.678 2.628 1.732V1.578l-2.634 1.768L31.322.704h-4.464l1.778 2.647-2.684-1.77v4.52l2.684-1.8-1.757 2.669h1.271l-.222 1c0 .111-.342.204-.455.204-2.41-.112-3.833-2.16-6.546-2.16-2.79 0-4.782 2.242-4.782 4.526 0 2.309 2.882 5.781 3.593 6.601a.513.513 0 0 0 .398.178zm16.989 1.21H21.067a1.156 1.156 0 0 0 0 2.313h16.058a1.156 1.156 0 1 0 0-2.313" fill="#ffffff" mask="url(#d)"/><path d="M54.145 27.009c-.463-.8-1.147-1.488-1.498-1.839-.707-.706-1.382-1.132-2.006-1.367l1.242-1.247h.005c.053 0 .603.037 1.969 1.403 1.408 1.408 1.399 1.942 1.395 1.942l-1.107 1.108zm-5.289 5.288c-1.118 1.118-2.7 1.864-4.059 2.304l1.631-1.631a1.124 1.124 0 0 0-1.59-1.59l-1.631 1.631c.439-1.359 1.184-2.94 2.303-4.059l3.747-3.761c.513-.055 1.266.128 2.254 1.115.79.79 1.281 1.459 1.427 1.909l-4.082 4.082zM37.689 48.684c0 1.537-.475 1.537-.977 1.537-1.465 0-4.708-.856-5.657-1.537.949-.683 4.193-1.539 5.657-1.539.502 0 .977 0 .977 1.539zm-17.161 0c0-1.539.474-1.539.976-1.539 1.465 0 4.709.856 5.658 1.539-.949.681-4.192 1.537-5.658 1.537-.502 0-.976 0-.976-1.537zM3.69 28.078c-.94.94-1.455 1.808-1.698 2.582-.222-.391-.38-.829-.386-1.296-.008-.734.37-1.489 1.125-2.244l1.609-1.609.958.959-1.608 1.608zm25.418 12.024c1.538 0 1.538.475 1.538.978 0 1.464-.856 4.708-1.538 5.656-.682-.948-1.537-4.192-1.537-5.656 0-.503 0-.978 1.537-.978zm28.296-14.889c-.228-.825-.868-1.756-1.957-2.844-2.167-2.169-3.895-2.64-5.131-1.404l-6.396 6.397c-1.69 1.69-2.569 4.008-2.943 5.239-.305 1.002-.568 2.197-.493 3.133l-7.962 7.962c.262-1.271.372-2.343.372-2.616 0-1.205-.492-3.226-3.786-3.226-3.293 0-3.786 2.021-3.786 3.226 0 .273.11 1.338.37 2.604L3.032 21.023a1.124 1.124 0 0 0-1.59 1.59l1.762 1.762-1.608 1.609C.523 27.056-.014 28.2.001 29.383c.022 1.916 1.495 3.32 2.123 3.92l.154.148a.803.803 0 0 0 1.304-.889c-.423-.973-.005-2.1 1.244-3.348l1.608-1.609 17.658 17.659c-1.258-.258-2.315-.368-2.588-.368-1.204 0-3.225.493-3.225 3.788 0 3.293 2.021 3.786 3.225 3.786.275 0 1.346-.111 2.617-.373L3.137 73.081a1.124 1.124 0 0 0 1.59 1.59l21.44-21.441c-.287 1.258-.569 2.816-.834 4.785a1.123 1.123 0 1 0 2.228.3c.357-2.635.984-5.672 1.534-7.157.604 1.63 1.333 5.12 1.764 8.155a1.125 1.125 0 0 0 2.227-.315c-.349-2.456-.704-4.329-1.053-5.794l21.341 21.341a1.12 1.12 0 0 0 1.59 0 1.124 1.124 0 0 0 0-1.59L34.108 52.1c1.266.259 2.331.37 2.604.37 1.205 0 3.225-.493 3.225-3.786 0-3.295-2.02-3.788-3.225-3.788-.272 0-1.322.109-2.575.365l7.95-7.951c.106.008.197.035.308.035.878 0 1.923-.244 2.813-.513 1.231-.375 3.549-1.255 5.238-2.945l6.396-6.396c.602-.602.802-1.411.562-2.278z" fill="#ffffff" mask="url(#d)"/><path d="M157.943 58.434h-.03l-2.068 5.812h4.167l-2.069-5.812zm-3.2 8.892c-.107.287-.287.498-.65.498-.347 0-.634-.211-.634-.558 0-.181.136-.529.181-.664l3.337-8.893c.166-.469.438-.815.951-.815.513 0 .785.346.951.815l3.337 8.893c.045.135.181.483.181.664 0 .347-.287.558-.634.558-.363 0-.544-.211-.65-.498l-.694-1.932h-4.982l-.694 1.932zm14.517-9.723c0-.438.257-.709.664-.709.408 0 .664.271.664.709v6.386c0 1.692 1.148 2.688 2.839 2.688s2.838-.996 2.838-2.688v-6.386c0-.438.257-.709.664-.709.407 0 .664.271.664.709v5.873c0 3.624-2.325 4.348-4.166 4.348-1.843 0-4.167-.724-4.167-4.348v-5.873m20.96.543a.577.577 0 0 1-.574.589c-.589 0-.785-.694-2.113-.694-.982 0-1.706.619-1.706 1.524 0 2.371 5.102 1.24 5.102 4.862 0 1.782-1.299 3.397-3.638 3.397-1.419 0-2.99-.544-2.99-1.299 0-.361.182-.678.56-.678.452 0 1.086.83 2.445.83 1.373 0 2.204-.996 2.204-2.19 0-2.551-5.102-1.312-5.102-4.831 0-1.252 1.177-2.762 3.17-2.762 1.328 0 2.642.559 2.642 1.252m9.535.076h-2.007c-.377 0-.65-.196-.65-.619 0-.422.273-.619.65-.619h5.344c.378 0 .65.197.65.619 0 .423-.272.619-.65.619h-2.008v8.893c0 .438-.256.709-.664.709-.408 0-.665-.271-.665-.709v-8.893m12.163 3.729h1.813c1.389 0 1.992-.589 1.992-1.977 0-.997-.784-1.842-2.022-1.842h-1.783v3.819zm0 5.164c0 .438-.255.709-.664.709-.407 0-.664-.271-.664-.709v-9.406c0-.408.212-.725.71-.725h2.461c1.691 0 3.291 1.148 3.291 2.9 0 2.173-1.329 2.988-2.929 3.049l-.574.014 3.427 3.76c.182.196.257.362.257.604 0 .287-.272.513-.604.513-.272 0-.453-.136-.604-.302l-4.107-4.5v4.093zm16.638-8.681h-.029l-2.069 5.812h4.168l-2.07-5.812zm-3.2 8.892c-.105.287-.286.498-.649.498-.347 0-.634-.211-.634-.558 0-.181.136-.529.18-.664l3.337-8.893c.166-.469.438-.815.952-.815.513 0 .785.346.951.815l3.337 8.893c.045.135.18.483.18.664 0 .347-.287.558-.634.558-.362 0-.543-.211-.649-.498l-.694-1.932h-4.983l-.694 1.932zm15.793-.831h2.839c.377 0 .649.197.649.62s-.272.618-.649.618h-3.457c-.499 0-.71-.317-.71-.723v-9.407c0-.438.257-.709.664-.709.407 0 .664.271.664.709v8.892m11.655.62c0 .438-.257.709-.665.709-.407 0-.663-.271-.663-.709v-9.512c0-.438.256-.709.663-.709.408 0 .665.271.665.709v9.512m11.293-8.681h-.03l-2.068 5.812h4.167l-2.069-5.812zm-3.201 8.892c-.105.287-.286.498-.648.498-.348 0-.634-.211-.634-.558 0-.181.135-.529.18-.664l3.336-8.893c.167-.469.439-.815.952-.815.513 0 .785.346.951.815l3.337 8.893c.045.135.181.483.181.664 0 .347-.288.558-.634.558-.363 0-.543-.211-.65-.498l-.694-1.932h-4.982l-.695 1.932z" fill="#ffffff"/></g></svg>